#N canvas 62 346 507 352 10;
#X obj 209 191 netsend;
#X floatatom 210 231 5 0 0 0 - - -, f 5;
#X obj 260 231 print back;
#X floatatom 168 90 5 0 0 0 - - -, f 5;
#X msg 204 151 disconnect;
#X msg 169 112 send \$1;
#X msg 280 151 connect 10.50.46.142 4711;
#X obj 76 25 vsl 15 128 0 127 0 0 empty empty empty 0 -9 0 10 -262144
-1 -1 1200 1;
#X obj 197 32 r internal;
#X obj 186 61 pipe 100;
#X connect 0 0 1 0;
#X connect 0 1 2 0;
#X connect 3 0 5 0;
#X connect 4 0 0 0;
#X connect 5 0 0 0;
#X connect 6 0 0 0;
#X connect 7 0 3 0;
#X connect 8 0 9 0;
#X connect 9 0 3 0;
