#N canvas 22 19 658 561 10;
#X obj 21 111 pack;
#X obj 341 84 loadbang;
#X obj 146 84 loadbang;
#X msg 146 111 \; scale 1 0 2 4 5 7 9 11 \; vibrato_freq 5 \; vibrato_amt
30 \;;
#X msg 341 111 \; pd dsp 1;
#X obj 21 178 r level;
#X floatatom 21 237 5 0 0 0 - - -, f 5;
#X floatatom 85 203 5 0 0 0 - - -, f 5;
#X obj 85 176 r pad_on;
#X obj 307 176 r pad_x;
#X obj 307 203 * 8;
#X obj 307 230 + 21;
#X obj 307 257 +;
#X obj 307 313 / 7;
#X obj 235 313 % 7;
#X obj 235 340 + 1;
#X obj 307 340 int;
#X obj 201 366 tabread scale;
#X obj 307 367 * 12;
#X obj 21 435 *~;
#X obj 386 176 r octave;
#X obj 414 202 r key_offset;
#X obj 473 237 r scale_offset;
#X obj 473 264 + 1;
#X obj 353 313 * 12;
#X obj 353 340 t b f;
#X obj 473 291 tabread scale;
#X obj 473 318 t b f;
#X obj 443 366 -;
#X obj 353 397 +;
#X obj 353 450 +;
#X obj 285 484 +;
#X obj 201 393 - 24;
#X obj 285 511 mtof;
#X obj 299 551 +~;
#X obj 300 577 osc~;
#X obj 285 604 *~;
#X obj 274 629 dac~;
#X obj 536 425 r pad_y;
#X obj 536 452 r vibrato_amt;
#X obj 536 479 r vibrato_freq;
#X obj 536 506 osc~;
#X obj 442 479 *;
#X obj 442 506 *~;
#X obj 214 84 table scale 8;
#X floatatom 36 367 5 0 0 0 - - -, f 5;
#X msg 85 227 1 1000 \, 0.7 1000 \, 0 1000 3000;
#X obj 85 254 vline~;
#X obj 85 313 snapshot~;
#X obj 137 278 metro 100;
#X obj 138 254 tgl 15 0 empty empty empty 17 7 0 10 -262144 -1 -1 0
1;
#X obj 44 531 oscparse;
#X obj 20 20 netreceive -u 8000;
#X obj 22 48 bng 15 250 50 0 empty empty empty 17 7 0 10 -262144 -1
-1;
#X msg 21 138 \; \$1 \$2 \;;
#X obj 61 80 pack s 0;
#X connect 0 0 54 0;
#X connect 1 0 4 0;
#X connect 2 0 3 0;
#X connect 5 0 6 0;
#X connect 6 0 19 0;
#X connect 7 0 46 0;
#X connect 8 0 7 0;
#X connect 9 0 10 0;
#X connect 10 0 11 0;
#X connect 11 0 12 0;
#X connect 12 0 14 0;
#X connect 12 0 13 0;
#X connect 13 0 16 0;
#X connect 14 0 15 0;
#X connect 15 0 17 0;
#X connect 16 0 18 0;
#X connect 17 0 32 0;
#X connect 18 0 29 0;
#X connect 19 0 36 0;
#X connect 20 0 24 0;
#X connect 21 0 28 0;
#X connect 22 0 23 0;
#X connect 22 0 12 1;
#X connect 23 0 26 0;
#X connect 24 0 25 0;
#X connect 25 0 29 0;
#X connect 25 1 29 1;
#X connect 26 0 27 0;
#X connect 27 0 28 0;
#X connect 27 1 28 1;
#X connect 28 0 30 1;
#X connect 29 0 30 0;
#X connect 30 0 31 0;
#X connect 31 0 33 0;
#X connect 32 0 31 0;
#X connect 33 0 34 0;
#X connect 34 0 35 0;
#X connect 35 0 36 1;
#X connect 36 0 37 0;
#X connect 36 0 37 1;
#X connect 38 0 42 0;
#X connect 39 0 42 1;
#X connect 40 0 41 0;
#X connect 41 0 43 1;
#X connect 42 0 43 0;
#X connect 43 0 34 1;
#X connect 45 0 19 1;
#X connect 46 0 47 0;
#X connect 47 0 48 0;
#X connect 48 0 45 0;
#X connect 49 0 48 0;
#X connect 50 0 49 0;
#X connect 52 0 53 0;
#X connect 53 0 55 0;
